<?xml version="1.0" encoding="utf-8"?>
<svg viewBox="-0.854 42.505 80.939 19.974" xmlns="http://www.w3.org/2000/svg">
  <g transform="matrix(0.529412, 0, 0, 0.529412, 18.768694, 31.014864)">
    <g transform="matrix(0.425, 0, 0, 0.425, 22, 23)">
      <path fill="#FFFFFF" d="M40,0c22.091,0,40,17.909,40,40S62.091,80,40,80S0,62.091,0,40S17.909,0,40,0z"/>
    </g>
    <g transform="matrix(0.404908, 0, 0, 0.404908, 4.814915, 19.365351)">
      <path d="M 89.663 57.062 C 90.585 56.918 91.447 56.698 92.099 56.361 C 94.445 55.15 96.029 52.943 97.228 50.66 C 98.517 48.211 99.382 45.519 101.064 43.289 C 101.348 42.912 101.632 42.574 101.915 42.256 C 105.544 42.691 108.441 43.471 108.441 43.471 C 108.441 43.471 109.187 41.578 109.548 40.658 C 108.187 40.167 106.742 39.766 105.262 39.471 C 106.154 38.964 106.736 38.806 106.736 38.806 C 106.736 38.806 106.037 36.915 105.687 35.97 C 104.005 36.681 102.64 37.73 101.497 38.986 C 97.225 38.747 92.923 39.598 89.529 42.23 C 86.977 44.21 85.253 46.955 83.631 49.701 C 82.116 48.218 80.569 46.904 79.05 45.774 C 79.356 45.271 79.684 44.819 80.037 44.47 C 82.17 42.37 84.984 41.027 86.83 38.624 C 90.71 33.578 87.872 25.668 84.68 21.572 C 84.108 22.123 83.162 22.926 82.45 23.56 C 85.843 27.035 88.216 33.119 85.557 37.665 C 84.071 40.206 81.325 41.8 79.405 43.983 C 79.073 44.362 78.776 44.842 78.507 45.372 M 84.16 50.237 C 85.818 47.86 87.527 45.461 89.903 43.754 C 92.165 42.128 95.837 41.831 99.318 42.026 C 98.142 44.08 97.273 46.359 96.493 48.548 C 95.55 51.198 94.286 53.946 91.876 55.571 C 91.226 56.009 90.315 56.329 89.342 56.566 C 88.005 54.517 86.251 52.351 84.16 50.237"/>
      <path d="M 74.85 40.572 C 75.852 40.572 72.848 37.572 73.35 34.941 C 75.274 34.793 79.672 35.66 77.112 32.144 C 80.008 32.654 81.508 30.492 78.774 28.443 C 79.684 28.507 81.098 26.791 80.083 26.574 C 76.831 25.885 75.558 27.644 77.622 30.181 C 75.452 29.777 73.683 30.786 75.313 33.052 C 69.047 32.271 72.612 40.572 74.85 40.572"/>
      <path d="M 96.362 37.906 C 97.301 37.482 95.708 34.681 95.19 33.965 C 99.153 33.541 99.003 32.36 96.518 29.83 C 103.274 30.057 96.727 26.217 97.645 24.697 C 98.44 23.379 100.879 24.761 100.653 24.027 C 99.891 21.572 92.663 23.232 97.237 27.816 C 93.245 27.894 92.862 29.199 95.837 31.904 C 90.655 31.961 94.883 38.572 96.362 37.906"/>
      <path d="M 113.514 47.797 C 111.932 48.24 111.688 48.074 111.899 49.649 C 108.245 47.967 104.379 45.628 106.725 51.825 C 102.575 49.354 102.782 51.518 102.006 55.079 C 100.996 54.292 99.561 52.218 99.561 52.218 L 98.041 53.509 C 98.041 53.509 100.826 57.437 102.201 57.214 C 103.41 57.019 104.068 54.734 104.135 52.72 C 107.985 54.345 109.828 54.562 108.067 49.81 C 111.145 51.539 114.919 53.064 113.514 47.797"/>
      <path d="M 55.866 30.838 L 59.866 30.838 L 59.866 34.838 L 55.866 34.838 L 55.866 30.838 Z" transform="matrix(0.707107, 0.707107, -0.707107, 0.707107, 40.168532, -31.299413)"/>
      <path d="M 62.394 36.666 L 66.395 36.666 L 66.395 40.667 L 62.394 40.667 L 62.394 36.666 Z" transform="matrix(-0.707357, 0.706857, -0.706857, -0.707357, 137.27606, 20.499825)"/>
      <path d="M 67.037 26.4 L 71.037 26.4 L 71.037 30.401 L 67.037 30.401 L 67.037 26.4 Z" transform="matrix(0.707107, 0.707107, -0.707107, 0.707107, 40.302656, -40.498221)"/>
      <path d="M 97.827 60.226 L 101.828 60.226 L 101.828 64.227 L 97.827 64.227 L 97.827 60.226 Z" transform="matrix(-0.707357, -0.706857, 0.706857, -0.707357, 126.455946, 176.806576)"/>
      <path d="M 91.523 69.93 L 95.523 69.93 L 95.523 73.929 L 91.523 73.929 L 91.523 69.93 Z" transform="matrix(-0.707107, -0.707107, 0.707107, -0.707107, 108.791913, 188.922085)"/>
      <path d="M 103.929 72.162 L 107.93 72.162 L 107.93 76.162 L 103.929 76.162 L 103.929 72.162 Z" transform="matrix(-0.707357, -0.706857, 0.706857, -0.707357, 128.437534, 201.497968)"/>
      <path d="M 106.759 59.279 L 110.758 59.279 L 110.758 63.279 L 106.759 63.279 L 106.759 59.279 Z" transform="matrix(-0.707107, -0.707107, 0.707107, -0.707107, 142.331583, 181.513672)"/>
      <path d="M 102.037 29.399 L 106.037 29.399 L 106.037 33.4 L 102.037 33.4 L 102.037 29.399 Z" transform="matrix(0.707107, 0.707107, -0.707107, 0.707107, 52.674534, -64.36857)"/>
      <g transform="matrix(0.847028, 0, 0, 0.787417, 58.259453, 23.76597)" style="">
        <rect x="5.61" y="25.503" width="33.316" height="35.116" style="fill: rgb(216, 216, 216); stroke: rgb(0, 0, 0);"/>
        <line style="fill: rgb(216, 216, 216); stroke: rgb(0, 0, 0);" x1="5.419" y1="28.599" x2="39.028" y2="28.602"/>
        <line style="fill: rgb(216, 216, 216); stroke: rgb(0, 0, 0);" x1="14.829" y1="60.501" x2="14.899" y2="25.463" transform="matrix(-1, 0, 0, -1, 29.728002, 85.963997)"/>
        <line style="fill: rgb(216, 216, 216); stroke: rgb(0, 0, 0);" x1="21.157" y1="60.607" x2="21.227" y2="25.569" transform="matrix(-1, 0, 0, -1, 42.384003, 86.176)"/>
        <line style="fill: rgb(216, 216, 216); stroke: rgb(0, 0, 0);" x1="26.685" y1="60.467" x2="26.755" y2="25.429" transform="matrix(-1, 0, 0, -1, 53.439995, 85.895998)"/>
        <line style="fill: rgb(216, 216, 216); stroke: rgb(0, 0, 0);" x1="33.117" y1="60.519" x2="33.187" y2="25.481" transform="matrix(-1, 0, 0, -1, 66.303996, 86.000008)"/>
      </g>
      <g transform="matrix(0.847028, 0, 0, 0.787417, 56.323093, 25.361576)" style="">
        <rect x="5.61" y="25.503" width="33.316" height="35.116" style="fill: rgb(216, 216, 216); stroke: rgb(0, 0, 0);"/>
        <line style="fill: rgb(216, 216, 216); stroke: rgb(0, 0, 0);" x1="5.419" y1="28.599" x2="39.028" y2="28.602"/>
        <line style="fill: rgb(216, 216, 216); stroke: rgb(0, 0, 0);" x1="14.829" y1="60.501" x2="14.899" y2="25.463" transform="matrix(-1, 0, 0, -1, 29.728002, 85.963997)"/>
        <line style="fill: rgb(216, 216, 216); stroke: rgb(0, 0, 0);" x1="21.157" y1="60.607" x2="21.227" y2="25.569" transform="matrix(-1, 0, 0, -1, 42.384003, 86.176)"/>
        <line style="fill: rgb(216, 216, 216); stroke: rgb(0, 0, 0);" x1="26.685" y1="60.467" x2="26.755" y2="25.429" transform="matrix(-1, 0, 0, -1, 53.439995, 85.895998)"/>
        <line style="fill: rgb(216, 216, 216); stroke: rgb(0, 0, 0);" x1="33.117" y1="60.519" x2="33.187" y2="25.481" transform="matrix(-1, 0, 0, -1, 66.303996, 86.000008)"/>
      </g>
      <g transform="matrix(0.847028, 0, 0, 0.787417, 54.449448, 26.860327)" style="">
        <rect x="5.61" y="25.503" width="33.316" height="35.116" style="fill: rgb(216, 216, 216); stroke: rgb(0, 0, 0);"/>
        <line style="fill: rgb(216, 216, 216); stroke: rgb(0, 0, 0);" x1="5.419" y1="28.599" x2="39.028" y2="28.602"/>
        <line style="fill: rgb(216, 216, 216); stroke: rgb(0, 0, 0);" x1="14.829" y1="60.501" x2="14.899" y2="25.463" transform="matrix(-1, 0, 0, -1, 29.728002, 85.963997)"/>
        <line style="fill: rgb(216, 216, 216); stroke: rgb(0, 0, 0);" x1="21.157" y1="60.607" x2="21.227" y2="25.569" transform="matrix(-1, 0, 0, -1, 42.384003, 86.176)"/>
        <line style="fill: rgb(216, 216, 216); stroke: rgb(0, 0, 0);" x1="26.685" y1="60.467" x2="26.755" y2="25.429" transform="matrix(-1, 0, 0, -1, 53.439995, 85.895998)"/>
        <line style="fill: rgb(216, 216, 216); stroke: rgb(0, 0, 0);" x1="33.117" y1="60.519" x2="33.187" y2="25.481" transform="matrix(-1, 0, 0, -1, 66.303996, 86.000008)"/>
      </g>
      <text style="white-space: pre; fill: rgb(51, 51, 51); font-family: Arial, sans-serif; font-size: 2.2px;" x="9.433" y="30.441" transform="matrix(0.913006, 0, 0, 0.802331, 53.090572, 24.440231)">~~~</text>
      <text style="white-space: pre; fill: rgb(51, 51, 51); font-family: Arial, sans-serif; font-size: 2.2px;" x="16.179" y="30.481" transform="matrix(0.913006, 0, 0, 0.802331, 53.090572, 24.440231)">~~~</text>
      <text style="white-space: pre; fill: rgb(51, 51, 51); font-family: Arial, sans-serif; font-size: 2.2px;" x="20.95" y="30.513" transform="matrix(0.913006, 0, 0, 0.802331, 53.912968, 24.39592)">~~~</text>
      <text style="white-space: pre; fill: rgb(51, 51, 51); font-family: Arial, sans-serif; font-size: 2.2px;" x="31.422" y="30.435" transform="matrix(0.913006, 0, 0, 0.802331, 54.603252, 24.388868)">~~~</text>
      <text style="white-space: pre; fill: rgb(51, 51, 51); font-family: Arial, sans-serif; font-size: 2.2px;" x="20.95" y="30.513" transform="matrix(0.913006, 0, 0, 0.802331, 59.630562, 23.905254)">...</text>
      <text style="white-space: pre; fill: rgb(51, 51, 51); font-family: Arial, sans-serif; font-size: 2.2px;" x="9.433" y="30.441" transform="matrix(0.913006, 0, 0, 0.802331, 53.003754, 27.660971)">~~~<tspan x="9.432999610900879" dy="1em">​</tspan>~~~<tspan x="9.432999610900879" dy="1em">​</tspan>~~~<tspan x="9.432999610900879" dy="1em">​</tspan><tspan x="9.432999610900879" dy="1em">​</tspan><tspan x="9.432999610900879" dy="1em">​</tspan> ...<tspan x="9.432999610900879" dy="1em">​</tspan><tspan x="9.432999610900879" dy="1em">​</tspan><tspan x="9.432999610900879" dy="1em">​</tspan><tspan x="9.432999610900879" dy="1em">​</tspan><tspan x="9.432999610900879" dy="1em">​</tspan><tspan x="9.432999610900879" dy="1em">​</tspan><tspan x="9.432999610900879" dy="1em">​</tspan>~~~</text>
      <text style="white-space: pre; fill: rgb(51, 51, 51); font-family: Arial, sans-serif; font-size: 2.2px;" x="9.433" y="30.441" transform="matrix(0.913006, 0, 0, 0.802331, 59.413914, 27.591793)">~~~<tspan x="9.432999610900879" dy="1em">​</tspan>~~~<tspan x="9.432999610900879" dy="1em">​</tspan>~~~<tspan x="9.432999610900879" dy="1em">​</tspan><tspan x="9.432999610900879" dy="1em">​</tspan><tspan x="9.432999610900879" dy="1em">​</tspan> ...<tspan x="9.432999610900879" dy="1em">​</tspan><tspan x="9.432999610900879" dy="1em">​</tspan><tspan x="9.432999610900879" dy="1em">​</tspan><tspan x="9.432999610900879" dy="1em">​</tspan><tspan x="9.432999610900879" dy="1em">​</tspan><tspan x="9.432999610900879" dy="1em">​</tspan><tspan x="9.432999610900879" dy="1em">​</tspan>~~~</text>
      <text style="white-space: pre; fill: rgb(51, 51, 51); font-family: Arial, sans-serif; font-size: 2.2px;" x="9.433" y="30.441" transform="matrix(0.913006, 0, 0, 0.802331, 64.402596, 27.571344)">~~~<tspan x="9.432999610900879" dy="1em">​</tspan>~~~<tspan x="9.432999610900879" dy="1em">​</tspan>~~~<tspan x="9.432999610900879" dy="1em">​</tspan><tspan x="9.432999610900879" dy="1em">​</tspan><tspan x="9.432999610900879" dy="1em">​</tspan> ...<tspan x="9.432999610900879" dy="1em">​</tspan><tspan x="9.432999610900879" dy="1em">​</tspan><tspan x="9.432999610900879" dy="1em">​</tspan><tspan x="9.432999610900879" dy="1em">​</tspan><tspan x="9.432999610900879" dy="1em">​</tspan><tspan x="9.432999610900879" dy="1em">​</tspan><tspan x="9.432999610900879" dy="1em">​</tspan>~~~</text>
      <text style="white-space: pre; fill: rgb(51, 51, 51); font-family: Arial, sans-serif; font-size: 2.2px;" x="9.433" y="30.441" transform="matrix(0.913006, 0, 0, 0.802331, 74.696899, 27.51074)">~~~<tspan x="9.432999610900879" dy="1em">​</tspan>~~~<tspan x="9.432999610900879" dy="1em">​</tspan>~~~<tspan x="9.432999610900879" dy="1em">​</tspan><tspan x="9.432999610900879" dy="1em">​</tspan><tspan x="9.432999610900879" dy="1em">​</tspan> ...<tspan x="9.432999610900879" dy="1em">​</tspan><tspan x="9.432999610900879" dy="1em">​</tspan><tspan x="9.432999610900879" dy="1em">​</tspan><tspan x="9.432999610900879" dy="1em">​</tspan><tspan x="9.432999610900879" dy="1em">​</tspan><tspan x="9.432999610900879" dy="1em">​</tspan><tspan x="9.432999610900879" dy="1em">​</tspan>~~~</text>
    </g>
  </g>
</svg>