<?xml version="1.0" encoding="utf-8"?>
<svg viewBox="0 0 64 64" xmlns="http://www.w3.org/2000/svg">
  <path d="M 37.846 38.49 C 38.768 38.346 39.63 38.126 40.282 37.789 C 42.628 36.578 44.212 34.371 45.411 32.088 C 46.7 29.639 47.565 26.947 49.247 24.717 C 49.531 24.34 49.815 24.002 50.098 23.684 C 53.727 24.119 56.624 24.899 56.624 24.899 C 56.624 24.899 57.37 23.006 57.731 22.086 C 56.37 21.595 54.925 21.194 53.445 20.899 C 54.337 20.392 54.919 20.234 54.919 20.234 C 54.919 20.234 54.22 18.343 53.87 17.398 C 52.188 18.109 50.823 19.158 49.68 20.414 C 45.408 20.175 41.106 21.026 37.712 23.658 C 35.16 25.638 33.436 28.383 31.814 31.129 C 30.299 29.646 28.752 28.332 27.233 27.202 C 27.539 26.699 27.867 26.247 28.22 25.898 C 30.353 23.798 33.167 22.455 35.013 20.052 C 38.893 15.006 36.055 7.096 32.863 3 C 32.291 3.551 31.345 4.354 30.633 4.988 C 34.026 8.463 36.399 14.547 33.74 19.093 C 32.254 21.634 29.508 23.228 27.588 25.411 C 27.256 25.79 26.959 26.27 26.69 26.8 M 32.343 31.665 C 34.001 29.288 35.71 26.889 38.086 25.182 C 40.348 23.556 44.02 23.259 47.501 23.454 C 46.325 25.508 45.456 27.787 44.676 29.976 C 43.733 32.626 42.469 35.374 40.059 36.999 C 39.409 37.437 38.498 37.757 37.525 37.994 C 36.188 35.945 34.434 33.779 32.343 31.665"/>
  <path d="m23.033 22c1.002 0-2.002-3-1.5-5.631 1.924-.148 6.322.719 3.762-2.797 2.896.51 4.396-1.652 1.662-3.701.91.064 2.324-1.652 1.309-1.869-3.252-.689-4.525 1.07-2.461 3.607-2.17-.404-3.939.605-2.309 2.871-6.266-.781-2.701 7.52-.463 7.52"/>
  <path d="m44.545 19.334c.939-.424-.654-3.225-1.172-3.941 3.963-.424 3.813-1.605 1.328-4.135 6.756.227.209-3.613 1.127-5.133.795-1.318 3.234.064 3.008-.67-.762-2.455-7.99-.795-3.416 3.789-3.992.078-4.375 1.383-1.4 4.088-5.182.057-.954 6.668.525 6.002"/>
  <path d="m61.697 29.225c-1.582.443-1.826.277-1.615 1.852-3.654-1.682-7.52-4.021-5.174 2.176-4.15-2.471-3.943-.307-4.719 3.254-1.01-.787-2.445-2.861-2.445-2.861l-1.52 1.291c0 0 2.785 3.928 4.16 3.705 1.209-.195 1.867-2.48 1.934-4.494 3.85 1.625 5.693 1.842 3.932-2.91 3.078 1.729 6.852 3.254 5.447-2.013"/>
  <path transform="matrix(0.7071, 0.7071, -0.7071, 0.7071, 11.859, -0.0989)" d="m4.049 12.266h4v4h-4z"/>
  <path d="M 10.577 18.094 L 14.578 18.094 L 14.578 22.095 L 10.577 22.095 L 10.577 18.094 Z" transform="matrix(-0.707357, 0.706857, -0.706857, -0.707357, 35.678207, 25.41799)"/>
  <path transform="matrix(0.7071, 0.7071, -0.7071, 0.7071, 11.9931, -9.2976)" d="m15.22 7.828h4v4.001h-4z"/>
  <path transform="matrix(-0.7074, -0.7069, 0.7069, -0.7074, 51.110802, 108.476898)" d="m46.01 41.658h4.001v4h-4.001z"/>
  <path transform="matrix(-0.7071, -0.7071, 0.7071, -0.7071, 33.465599, 120.576797)" d="m39.705 51.358h4v4h-4z"/>
  <path transform="matrix(-0.7074, -0.7069, 0.7069, -0.7074, 53.090199, 133.171295)" d="m52.112 53.596h4.001v4h-4.001z"/>
  <path transform="matrix(-0.7071, -0.7071, 0.7071, -0.7071, 67.006599, 113.169098)" d="m54.942 40.707h4v4h-4z"/>
  <path transform="matrix(0.7071, 0.7071, -0.7071, 0.7071, 24.3657, -33.167702)" d="m50.22 10.828h4v4.001h-4z"/>
  <g transform="matrix(0.847028, 0, 0, 0.787417, 6.441978, 5.194192)" style="">
    <rect x="5.61" y="25.503" width="33.316" height="35.116" style="fill: rgb(216, 216, 216); stroke: rgb(0, 0, 0);"/>
    <line style="fill: rgb(216, 216, 216); stroke: rgb(0, 0, 0);" x1="5.419" y1="28.599" x2="39.028" y2="28.602"/>
    <line style="fill: rgb(216, 216, 216); stroke: rgb(0, 0, 0);" x1="14.829" y1="60.501" x2="14.899" y2="25.463" transform="matrix(-1, 0, 0, -1, 29.728002, 85.963997)"/>
    <line style="fill: rgb(216, 216, 216); stroke: rgb(0, 0, 0);" x1="21.157" y1="60.607" x2="21.227" y2="25.569" transform="matrix(-1, 0, 0, -1, 42.384003, 86.176)"/>
    <line style="fill: rgb(216, 216, 216); stroke: rgb(0, 0, 0);" x1="26.685" y1="60.467" x2="26.755" y2="25.429" transform="matrix(-1, 0, 0, -1, 53.439995, 85.895998)"/>
    <line style="fill: rgb(216, 216, 216); stroke: rgb(0, 0, 0);" x1="33.117" y1="60.519" x2="33.187" y2="25.481" transform="matrix(-1, 0, 0, -1, 66.303996, 86.000008)"/>
  </g>
  <g transform="matrix(0.847028, 0, 0, 0.787417, 4.505621, 6.789799)" style="">
    <rect x="5.61" y="25.503" width="33.316" height="35.116" style="fill: rgb(216, 216, 216); stroke: rgb(0, 0, 0);"/>
    <line style="fill: rgb(216, 216, 216); stroke: rgb(0, 0, 0);" x1="5.419" y1="28.599" x2="39.028" y2="28.602"/>
    <line style="fill: rgb(216, 216, 216); stroke: rgb(0, 0, 0);" x1="14.829" y1="60.501" x2="14.899" y2="25.463" transform="matrix(-1, 0, 0, -1, 29.728002, 85.963997)"/>
    <line style="fill: rgb(216, 216, 216); stroke: rgb(0, 0, 0);" x1="21.157" y1="60.607" x2="21.227" y2="25.569" transform="matrix(-1, 0, 0, -1, 42.384003, 86.176)"/>
    <line style="fill: rgb(216, 216, 216); stroke: rgb(0, 0, 0);" x1="26.685" y1="60.467" x2="26.755" y2="25.429" transform="matrix(-1, 0, 0, -1, 53.439995, 85.895998)"/>
    <line style="fill: rgb(216, 216, 216); stroke: rgb(0, 0, 0);" x1="33.117" y1="60.519" x2="33.187" y2="25.481" transform="matrix(-1, 0, 0, -1, 66.303996, 86.000008)"/>
  </g>
  <g transform="matrix(0.847028, 0, 0, 0.787417, 2.631974, 8.288548)" style="">
    <rect x="5.61" y="25.503" width="33.316" height="35.116" style="fill: rgb(216, 216, 216); stroke: rgb(0, 0, 0);"/>
    <line style="fill: rgb(216, 216, 216); stroke: rgb(0, 0, 0);" x1="5.419" y1="28.599" x2="39.028" y2="28.602"/>
    <line style="fill: rgb(216, 216, 216); stroke: rgb(0, 0, 0);" x1="14.829" y1="60.501" x2="14.899" y2="25.463" transform="matrix(-1, 0, 0, -1, 29.728002, 85.963997)"/>
    <line style="fill: rgb(216, 216, 216); stroke: rgb(0, 0, 0);" x1="21.157" y1="60.607" x2="21.227" y2="25.569" transform="matrix(-1, 0, 0, -1, 42.384003, 86.176)"/>
    <line style="fill: rgb(216, 216, 216); stroke: rgb(0, 0, 0);" x1="26.685" y1="60.467" x2="26.755" y2="25.429" transform="matrix(-1, 0, 0, -1, 53.439995, 85.895998)"/>
    <line style="fill: rgb(216, 216, 216); stroke: rgb(0, 0, 0);" x1="33.117" y1="60.519" x2="33.187" y2="25.481" transform="matrix(-1, 0, 0, -1, 66.303996, 86.000008)"/>
  </g>
  <text style="white-space: pre; fill: rgb(51, 51, 51); font-family: Arial, sans-serif; font-size: 2.2px;" x="9.433" y="30.441" transform="matrix(0.913006, 0, 0, 0.802331, 1.2731, 5.868453)">~~~</text>
  <text style="white-space: pre; fill: rgb(51, 51, 51); font-family: Arial, sans-serif; font-size: 2.2px;" x="16.179" y="30.481" transform="matrix(0.913006, 0, 0, 0.802331, 1.2731, 5.868453)">~~~</text>
  <text style="white-space: pre; fill: rgb(51, 51, 51); font-family: Arial, sans-serif; font-size: 2.2px;" x="20.95" y="30.513" transform="matrix(0.913006, 0, 0, 0.802331, 2.095496, 5.824141)">~~~</text>
  <text style="white-space: pre; fill: rgb(51, 51, 51); font-family: Arial, sans-serif; font-size: 2.2px;" x="31.422" y="30.435" transform="matrix(0.913006, 0, 0, 0.802331, 2.785779, 5.817091)">~~~</text>
  <text style="white-space: pre; fill: rgb(51, 51, 51); font-family: Arial, sans-serif; font-size: 2.2px;" x="20.95" y="30.513" transform="matrix(0.913006, 0, 0, 0.802331, 7.813089, 5.333475)">...</text>
  <text style="white-space: pre; fill: rgb(51, 51, 51); font-family: Arial, sans-serif; font-size: 2.2px;" x="9.433" y="30.441" transform="matrix(0.913006, 0, 0, 0.802331, 1.186282, 9.089192)">~~~<tspan x="9.432999610900879" dy="1em">​</tspan>~~~<tspan x="9.432999610900879" dy="1em">​</tspan>~~~<tspan x="9.432999610900879" dy="1em">​</tspan><tspan x="9.432999610900879" dy="1em">​</tspan><tspan x="9.432999610900879" dy="1em">​</tspan> ...<tspan x="9.432999610900879" dy="1em">​</tspan><tspan x="9.432999610900879" dy="1em">​</tspan><tspan x="9.432999610900879" dy="1em">​</tspan><tspan x="9.432999610900879" dy="1em">​</tspan><tspan x="9.432999610900879" dy="1em">​</tspan><tspan x="9.432999610900879" dy="1em">​</tspan><tspan x="9.432999610900879" dy="1em">​</tspan>~~~</text>
  <text style="white-space: pre; fill: rgb(51, 51, 51); font-family: Arial, sans-serif; font-size: 2.2px;" x="9.433" y="30.441" transform="matrix(0.913006, 0, 0, 0.802331, 7.59644, 9.020015)">~~~<tspan x="9.432999610900879" dy="1em">​</tspan>~~~<tspan x="9.432999610900879" dy="1em">​</tspan>~~~<tspan x="9.432999610900879" dy="1em">​</tspan><tspan x="9.432999610900879" dy="1em">​</tspan><tspan x="9.432999610900879" dy="1em">​</tspan> ...<tspan x="9.432999610900879" dy="1em">​</tspan><tspan x="9.432999610900879" dy="1em">​</tspan><tspan x="9.432999610900879" dy="1em">​</tspan><tspan x="9.432999610900879" dy="1em">​</tspan><tspan x="9.432999610900879" dy="1em">​</tspan><tspan x="9.432999610900879" dy="1em">​</tspan><tspan x="9.432999610900879" dy="1em">​</tspan>~~~</text>
  <text style="white-space: pre; fill: rgb(51, 51, 51); font-family: Arial, sans-serif; font-size: 2.2px;" x="9.433" y="30.441" transform="matrix(0.913006, 0, 0, 0.802331, 12.585119, 8.999566)">~~~<tspan x="9.432999610900879" dy="1em">​</tspan>~~~<tspan x="9.432999610900879" dy="1em">​</tspan>~~~<tspan x="9.432999610900879" dy="1em">​</tspan><tspan x="9.432999610900879" dy="1em">​</tspan><tspan x="9.432999610900879" dy="1em">​</tspan> ...<tspan x="9.432999610900879" dy="1em">​</tspan><tspan x="9.432999610900879" dy="1em">​</tspan><tspan x="9.432999610900879" dy="1em">​</tspan><tspan x="9.432999610900879" dy="1em">​</tspan><tspan x="9.432999610900879" dy="1em">​</tspan><tspan x="9.432999610900879" dy="1em">​</tspan><tspan x="9.432999610900879" dy="1em">​</tspan>~~~</text>
  <text style="white-space: pre; fill: rgb(51, 51, 51); font-family: Arial, sans-serif; font-size: 2.2px;" x="9.433" y="30.441" transform="matrix(0.913006, 0, 0, 0.802331, 22.879423, 8.938963)">~~~<tspan x="9.432999610900879" dy="1em">​</tspan>~~~<tspan x="9.432999610900879" dy="1em">​</tspan>~~~<tspan x="9.432999610900879" dy="1em">​</tspan><tspan x="9.432999610900879" dy="1em">​</tspan><tspan x="9.432999610900879" dy="1em">​</tspan> ...<tspan x="9.432999610900879" dy="1em">​</tspan><tspan x="9.432999610900879" dy="1em">​</tspan><tspan x="9.432999610900879" dy="1em">​</tspan><tspan x="9.432999610900879" dy="1em">​</tspan><tspan x="9.432999610900879" dy="1em">​</tspan><tspan x="9.432999610900879" dy="1em">​</tspan><tspan x="9.432999610900879" dy="1em">​</tspan>~~~</text>
</svg>